<svg width="1024" height="1024" viewBox="0 0 1024 1024" fill="none" xmlns="http://www.w3.org/2000/svg">
  <defs>
    <radialGradient id="ap-bg" cx="0" cy="0" r="1" gradientUnits="userSpaceOnUse" gradientTransform="translate(514 500) rotate(90) scale(470 450)">
      <stop offset="0" stop-color="#130b3f"/>
      <stop offset="1" stop-color="#07051b"/>
    </radialGradient>
    <linearGradient id="ap-ring" x1="132" y1="180" x2="892" y2="862" gradientUnits="userSpaceOnUse">
      <stop stop-color="#B38BFF"/>
      <stop offset="1" stop-color="#8F63FF"/>
    </linearGradient>
    <linearGradient id="ap-stroke" x1="236" y1="262" x2="786" y2="742" gradientUnits="userSpaceOnUse">
      <stop stop-color="#B66BFF"/>
      <stop offset="0.52" stop-color="#A466FF"/>
      <stop offset="1" stop-color="#8B5CEB"/>
    </linearGradient>
    <linearGradient id="ap-stroke-dark" x1="596" y1="342" x2="724" y2="748" gradientUnits="userSpaceOnUse">
      <stop stop-color="#6C43B4"/>
      <stop offset="1" stop-color="#5B319A"/>
    </linearGradient>
    <filter id="ap-glow" x="0" y="0" width="1024" height="1024" color-interpolation-filters="sRGB">
      <feGaussianBlur stdDeviation="12"/>
    </filter>
  </defs>

  <circle cx="512" cy="512" r="470" fill="url(#ap-bg)"/>
  <circle cx="512" cy="512" r="470" stroke="url(#ap-ring)" stroke-width="28"/>

  <circle cx="512" cy="512" r="455" stroke="#2B1D5F" stroke-opacity="0.36" stroke-width="2"/>
  <path d="M240 364C350 290 594 252 788 344" stroke="#1E1351" stroke-opacity="0.55" stroke-width="3"/>
  <path d="M218 802C335 876 632 914 860 756" stroke="#211457" stroke-opacity="0.58" stroke-width="3"/>

  <g filter="url(#ap-glow)" opacity="0.35">
    <path d="M282 364H680" stroke="#B985FF" stroke-width="18" stroke-linecap="round"/>
    <path d="M282 364V770" stroke="#B985FF" stroke-width="18" stroke-linecap="round"/>
    <path d="M282 566H680" stroke="#B985FF" stroke-width="18" stroke-linecap="round"/>
    <path d="M680 364C778 364 854 438 854 536C854 634 778 706 680 706H512" stroke="#B985FF" stroke-width="18" stroke-linecap="round"/>
  </g>

  <path d="M282 364H680" stroke="url(#ap-stroke)" stroke-width="52" stroke-linecap="round"/>
  <path d="M282 364V770" stroke="url(#ap-stroke)" stroke-width="52" stroke-linecap="round"/>
  <path d="M282 566H680" stroke="url(#ap-stroke)" stroke-width="52" stroke-linecap="round"/>

  <path d="M680 364C778 364 854 438 854 536C854 634 778 706 680 706H512" stroke="url(#ap-stroke)" stroke-width="52" stroke-linecap="round"/>
  <path d="M514 364V770" stroke="url(#ap-stroke-dark)" stroke-width="46" stroke-linecap="round"/>

  <rect x="294" y="798" width="430" height="44" rx="22" fill="#050614" fill-opacity="0.9"/>
  <path d="M714 746C735 650 785 588 892 552" stroke="#2D215E" stroke-opacity="0.58" stroke-width="4"/>
</svg>
